<svg width="16" height="15" viewBox="0 0 16 15" fill="none" xmlns="http://www.w3.org/2000/svg">
<path d="M11.9584 9.125C12.8896 8.2125 13.8334 7.11875 13.8334 5.6875C13.8334 4.77582 13.4712 3.90148 12.8266 3.25682C12.1819 2.61216 11.3076 2.25 10.3959 2.25C9.65573 2.25 9.06272 3.0706 8.46834 3.89309C8.17937 4.29298 7.89006 4.69331 7.58337 5C7.27668 4.69331 6.98738 4.29298 6.69841 3.89309C6.10403 3.0706 5.51102 2.25 4.77087 2.25C3.85919 2.25 2.98485 2.61216 2.34019 3.25682C1.69554 3.90148 1.33337 4.77582 1.33337 5.6875C1.33337 7.125 2.27087 8.21875 3.20837 9.125L7.58337 13.5L11.9584 9.125Z" fill="white" stroke="white" style="fill:white;fill-opacity:1;stroke:white;stroke-opacity:1;" stroke-width="2.66667" stroke-linecap="round" stroke-linejoin="round"/>
</svg>
